<svg id="Capa_1" data-name="Capa 1" xmlns="http://www.w3.org/2000/svg" viewBox="0 0 616.47 616.47"><defs><style>.cls-1{fill:#fff;}</style></defs><path class="cls-1" d="M222.19,267.51c8.54-5.15,12.86-14.3,12.86-27.39,0-14.59-5.66-24.16-17-28.86q-14.69-4.84-37.41-4.87H111.79v68.87h76.92Q209.26,275.26,222.19,267.51Z"/><path class="cls-1" d="M480.84,289.53c-9.82-8.29-21.89-12.42-36.32-12.42-15.65,0-27.87,4.45-36.51,13.22S393.93,311,391.69,326H497.13C496,310,490.54,297.88,480.84,289.53Z"/><path class="cls-1" d="M221.35,332.15c-7.55-3.36-18.11-5.15-31.68-5.24H111.79v83.23h76.83c13.73,0,24.45-1.83,32.06-5.51,13.89-6.84,20.8-19.77,20.8-39C241.48,349.37,234.79,338.23,221.35,332.15Z"/><path class="cls-1" d="M560.84,0H55.63A55.63,55.63,0,0,0,0,55.63V560.84a55.63,55.63,0,0,0,55.63,55.63H560.84a55.63,55.63,0,0,0,55.63-55.63V55.63A55.63,55.63,0,0,0,560.84,0Zm-185,166.75H511.47v38.84H375.88ZM294.12,419.87a86.52,86.52,0,0,1-22.4,24.54Q256.6,455.84,236,460.09a222.65,222.65,0,0,1-44.71,4.19H48.71V152.19h152.9q57.88.85,82,33.28c9.66,13.28,14.49,29.12,14.49,47.64,0,19-4.83,34.4-14.62,46-5.51,6.43-13.54,12.38-24.16,17.73q24.2,8.73,36.57,27.55t12.32,45.73Q308.23,397.85,294.12,419.87Zm266.5-54H390.15c1,23.14,9.09,39.39,24.52,48.67,9.34,5.8,20.54,8.71,33.76,8.71q20.82,0,33.92-10.56A50.28,50.28,0,0,0,495,396.83h62.47q-2.5,20.49-22.66,41.72-31.44,33.6-88,33.64-46.75,0-82.4-28.39-35.81-28.37-35.74-92.38,0-60,32.22-92t83.65-32q30.62-.06,55,10.81t40.38,34.15q14.5,20.58,18.69,47.71C560.23,330.62,560.87,346,560.62,365.88Z"/></svg>