<svg id="Calque_1" data-name="Calque 1" xmlns="http://www.w3.org/2000/svg" viewBox="0 0 239.07 239.07"><defs><style>.cls-1{fill:#fff;}</style></defs><path class="cls-1" d="M234.5,115.81c2.06,62.76-47.35,114.72-111.16,116.89C61.61,234.8,9.25,185.12,7.1,122.4,4.94,59.37,54.47,7.29,118.5,5.27,180.28,3.31,232.44,53,234.5,115.81Zm-27.63,3.5a86.1,86.1,0,1,0-86.27,85.81A85.89,85.89,0,0,0,206.87,119.31Z"/><path class="cls-1" d="M73.48,183.81,56.79,167l88.74-88.52L134,69.12,134.9,68h37v37.14l-.92.64L162.14,94.9C132.4,124.73,103.63,153.59,73.48,183.81Z"/><path class="cls-1" d="M96.87,193.34,157,133.59,145.54,124l.94-1.33h37.21V161l-10-11.23c-2,1.86-3.24,2.92-4.39,4.06-13.66,13.63-27.23,27.36-41.05,40.82a10.86,10.86,0,0,1-7.32,3c-8-.51-16-1.8-24-2.78Z"/><path class="cls-1" d="M115.91,93.93l-9.45-10.62L46.24,143.8a68.39,68.39,0,0,1-4-28.11c.11-1.52,1.78-3.1,3-4.35Q65.34,91.14,85.52,71c1.26-1.26,2.46-2.6,4.25-4.5L79,57.33l.75-1.2H117V93.35Z"/></svg>